<svg xmlns="http://www.w3.org/2000/svg" enable-background="new 0 0 24 24" viewBox="0 0 24 24"><path fill="#105E86" d="M23.25,11.077c-0.046-0.059-0.06-0.144-0.105-0.21c-0.067-0.066-0.134-0.125-0.2-0.189c-0.194-0.255-0.435-0.478-0.695-0.663c-0.214-0.143-0.682-0.344-0.77-0.584l-0.013-0.014c0.146-0.013,0.32-0.065,0.46-0.104c0.227-0.059,0.435-0.046,0.67-0.104c0.106-0.027,0.213-0.059,0.32-0.092V9.057c-0.12-0.118-0.21-0.278-0.334-0.388c-0.34-0.29-0.717-0.571-1.104-0.808c-0.21-0.132-0.476-0.216-0.697-0.328c-0.08-0.039-0.214-0.059-0.26-0.125c-0.12-0.143-0.19-0.334-0.275-0.505c-0.192-0.361-0.38-0.761-0.547-1.142c-0.12-0.257-0.193-0.513-0.34-0.749c-0.69-1.116-1.437-1.793-2.586-2.454c-0.247-0.137-0.543-0.196-0.856-0.269c-0.167-0.008-0.334-0.02-0.5-0.027c-0.11-0.046-0.216-0.171-0.31-0.231c-0.38-0.236-1.364-0.746-1.644-0.071c-0.18,0.426,0.267,0.846,0.422,1.062c0.115,0.15,0.26,0.322,0.34,0.491c0.047,0.114,0.06,0.231,0.107,0.35c0.106,0.289,0.207,0.61,0.347,0.881c0.073,0.137,0.153,0.282,0.247,0.405c0.054,0.072,0.146,0.105,0.167,0.223C15,5.507,14.994,5.701,14.94,5.864c-0.24,0.743-0.146,1.662,0.194,2.209c0.107,0.163,0.362,0.524,0.703,0.386c0.3-0.118,0.234-0.491,0.32-0.82c0.02-0.079,0.007-0.131,0.048-0.184V7.47c0.094,0.185,0.188,0.36,0.274,0.545c0.206,0.322,0.579,0.639,0.867,0.879C20.535,11.547,23.25,11.077,23.25,11.077z"/><path d="M6.129 19.625c-.361 0-.679-.262-.739-.629L4.952 16.31l-.791 2.771c-.092.322-.386.544-.721.544s-.629-.222-.721-.544l-.791-2.772L1.49 18.996c-.066.408-.451.688-.861.619-.409-.066-.686-.452-.62-.861l.978-6c.057-.347.346-.607.697-.628.35-.027.668.205.765.543l.991 3.473.991-3.473c.096-.338.419-.57.765-.543.351.021.64.281.697.628l.978 6c.066.409-.211.795-.62.861C6.21 19.622 6.169 19.625 6.129 19.625zM8.279 19.625c-.314 0-.606-.198-.711-.512l-1.17-3.5c-.131-.394.081-.818.474-.949.394-.131.818.08.949.473l1.17 3.5c.131.394-.081.818-.474.949C8.438 19.612 8.358 19.625 8.279 19.625z"/><path d="M6.13,21.125c-0.414,0-0.75-0.336-0.75-0.75s0.336-0.75,0.75-0.75c2.147,0,2.673-4.288,2.678-4.331c0.045-0.412,0.417-0.723,0.827-0.664c0.412,0.044,0.709,0.414,0.665,0.826C10.274,15.688,9.643,21.125,6.13,21.125z"/><path d="M12.493,19.625h-1.471c-0.414,0-0.75-0.336-0.75-0.75s0.336-0.75,0.75-0.75h1.471c0.394,0,0.713-0.335,0.713-0.746s-0.32-0.746-0.713-0.746c-1.229,0-2.221-1.008-2.221-2.246c0-1.254,0.993-2.262,2.213-2.262h1.471c0.414,0,0.75,0.336,0.75,0.75s-0.336,0.75-0.75,0.75h-1.471c-0.394,0-0.713,0.335-0.713,0.746c0,0.427,0.32,0.762,0.713,0.762c1.229,0,2.221,1.008,2.221,2.246S13.714,19.625,12.493,19.625z"/><path d="M17.38,19.625c-1.518,0-2.707-1.647-2.707-3.75s1.189-3.75,2.707-3.75s2.707,1.647,2.707,3.75S18.898,19.625,17.38,19.625z M17.38,13.625c-0.569,0-1.207,0.962-1.207,2.25s0.637,2.25,1.207,2.25s1.207-0.962,1.207-2.25S17.95,13.625,17.38,13.625z"/><path d="M19.337,19.625c-0.195,0-0.389-0.075-0.536-0.226l-1.36-1.391c-0.29-0.296-0.285-0.771,0.012-1.061c0.296-0.29,0.77-0.285,1.061,0.012l1.36,1.391c0.29,0.296,0.285,0.771-0.012,1.061C19.715,19.554,19.526,19.625,19.337,19.625z"/><path d="M23.25 19.625h-2.446c-.414 0-.75-.336-.75-.75v-6c0-.414.336-.75.75-.75s.75.336.75.75v5.25h1.696c.414 0 .75.336.75.75S23.664 19.625 23.25 19.625zM23.25 11.826c-.223 0-.443-.099-.591-.287-.065-.083-.106-.163-.134-.227l-.109-.104c-.024-.024-.047-.05-.068-.077-.141-.185-.32-.354-.533-.506-.025-.017-.08-.046-.138-.079-.3-.171-.707-.401-.881-.807-.084-.183-.096-.396-.022-.587.097-.253.317-.438.583-.479-.09-.061-.179-.118-.268-.172-.102-.064-.212-.106-.319-.152-.113-.048-.224-.096-.328-.148-.11-.031-.364-.116-.537-.366-.111-.128-.203-.326-.277-.485l-.052-.111c-.191-.359-.388-.777-.562-1.176-.042-.089-.085-.195-.127-.3-.048-.12-.092-.24-.163-.353-.604-.978-1.233-1.573-2.324-2.202-.12-.066-.332-.114-.557-.166l-.46-.03c-.087-.004-.173-.023-.254-.057-.177-.074-.308-.188-.394-.263-.101-.064-.195-.118-.282-.162.016.021.03.039.043.058.159.202.306.39.408.605.053.127.079.218.103.311.002.005.028.097.03.103l.073.204c.071.2.142.408.236.59.051.097.108.204.178.296.042.027.249.211.308.545.035.197-.01.4-.125.563.021-.029.019.003.011.036-.019.089-.04.177-.067.26-.1.308-.116.649-.078.949.012-.019.025-.036.039-.055.197-.252.533-.352.835-.248.221.075.389.247.464.458l.029.057c.066.129.131.255.193.385.137.197.39.446.659.646.065.049.131.107.195.171.057.026.11.062.16.104.043.03.103.074.167.137.163.137.268.34.268.566 0 .245-.12.484-.321.625-.2.14-.457.184-.688.099-.283-.104-.469-.292-.592-.417-.027-.027-.053-.056-.081-.078-.116-.086-.328-.252-.549-.47-.07.05-.15.094-.243.129-.266.11-.982.271-1.603-.673-.477-.766-.585-1.905-.281-2.851.013-.038.019-.072.026-.106.001-.008.003-.016.005-.024-.087-.128-.167-.27-.24-.407-.127-.245-.227-.52-.321-.784l-.067-.189c-.028-.071-.053-.158-.075-.244-.037-.107-.126-.222-.199-.314-.001-.001-.062-.08-.064-.082l-.085-.108c-.227-.279-.759-.933-.434-1.703.146-.354.424-.613.78-.729.665-.213 1.426.129 1.95.453.059.037.117.082.175.131l.275.016c.045.002.09.008.134.019.407.093.735.167 1.052.344 1.305.752 2.131 1.537 2.859 2.715.116.187.199.384.28.586.032.079.063.159.101.24.167.382.347.763.53 1.108l.08.168c.015.032.033.071.051.107.026.011.049.021.07.031.084.042.164.075.243.108.182.077.365.158.524.259.388.236.792.531 1.191.871.113.1.202.207.287.318.027.035.053.073.085.104.145.142.226.335.226.537 0 .313-.194.646-.485.761.117.114.224.232.321.355l.166.157c.036.035.068.074.097.116.063.094.1.181.122.235.199.32.129.747-.175.985C23.575 11.774 23.412 11.826 23.25 11.826zM23.84 10.613c0 .001 0 .001.001.002C23.841 10.614 23.841 10.614 23.84 10.613zM21.083 6.908c.004.007.008.013.012.017C21.092 6.919 21.088 6.913 21.083 6.908z"/><path d="M16.428,4.857c-0.013,0-0.025,0-0.038-0.001c-0.414-0.021-0.732-0.373-0.711-0.786c0.044-0.892-0.278-1.139-0.292-1.149c-0.366-0.193-0.485-0.636-0.292-1.001c0.194-0.367,0.668-0.494,1.034-0.301c0.117,0.062,1.141,0.659,1.048,2.525C17.156,4.546,16.825,4.857,16.428,4.857z"/></svg>