<svg xmlns="http://www.w3.org/2000/svg" enable-background="new 0 0 24 24" viewBox="0 0 24 24"><linearGradient id="a" x1="-267.89" x2="-267.885" y1="-308.278" y2="-308.283" gradientTransform="matrix(2500 0 0 -1643.5742 669732 -506670.469)" gradientUnits="userSpaceOnUse"><stop offset="0" stop-color="#c9cbce"/><stop offset="1" stop-color="#7b7a81"/></linearGradient><path fill="url(#a)" d="M13.875,16.646c-4.687,0-8.671-2.348-8.671-5.16s3.515-5.152,8.202-5.152c5.92,0,8.664,2.277,8.664,5.09S19.046,16.646,13.875,16.646L13.875,16.646z M12,3.521c-6.094,0-11.25,3.281-11.25,7.5c0,3.984,5.125,7.292,11.219,7.292c6.094,0,11.281-3.073,11.281-7.292S18.094,3.521,12,3.521L12,3.521z"/><path fill="#2165B6" d="M9.755,8.729v12.402h3.748v-4.823c0.937,0,1.495-0.205,2.108,0.919c0.937,1.608,2.108,3.904,2.108,3.904h4.451c0,0-2.811-4.593-3.045-4.823c-0.432-0.459-0.937-0.459-1.64-0.689c1.405-0.23,2.716-0.813,3.171-2.062c0.398-1.148,0.351-2.609-0.502-3.589c-0.739-0.775-1.498-1.239-3.372-1.239L9.755,8.729L9.755,8.729z"/><path fill="#FFF" d="M13.502,11.312h2.46c0.583,0,1.054,0.574,1.054,1.148c0,0.574-0.468,1.148-1.054,1.148h-2.46V11.312L13.502,11.312z"/><path d="M13.485,22H9.555c-0.414,0-0.75-0.336-0.75-0.75V8.611c0-0.414,0.336-0.75,0.75-0.75h7.894c1.511,0.025,4.344,0.925,4.344,4.145c0,1.998-1.062,3.151-2.206,3.759c1.665,1.624,3.289,5.007,3.362,5.161c0.111,0.232,0.095,0.506-0.042,0.724c-0.138,0.218-0.377,0.35-0.635,0.35h-4.442c-0.274,0-0.526-0.149-0.658-0.391l-1.591-2.911c-0.648-1.187-0.98-1.562-1.345-1.657v4.21C14.235,21.664,13.899,22,13.485,22z M10.305,20.5h2.431v-4.198c0-0.383,0.288-0.704,0.669-0.746c1.468-0.158,2.246,0.144,3.492,2.423l1.378,2.521h2.77c-0.716-1.321-1.847-3.176-2.796-3.918c-0.117-0.092-0.502-0.211-0.768-0.257c-0.374-0.064-0.641-0.397-0.622-0.776s0.317-0.684,0.695-0.711c0.277-0.022,2.738-0.295,2.738-2.831c0-2.501-2.566-2.638-2.859-2.645h-7.128V20.5z"/><path d="M15.104,14.222c-0.237,0-0.487-0.006-0.749-0.012c-0.281-0.007-0.579-0.015-0.888-0.015c-0.414,0-0.75-0.336-0.75-0.75v-1.898c0-0.414,0.336-0.75,0.75-0.75c0.343,0,0.66-0.006,0.952-0.011c1.327-0.02,2.21-0.038,2.78,0.521c0.293,0.288,0.441,0.682,0.441,1.171s-0.155,0.889-0.46,1.187C16.698,14.137,15.988,14.222,15.104,14.222z M14.218,12.706c0.059,0.001,0.117,0.003,0.175,0.004c0.624,0.015,1.562,0.04,1.739-0.117c-0.001-0.001,0.01-0.035,0.01-0.114c0-0.095-0.014-0.129-0.014-0.13c-0.152-0.09-1.001-0.074-1.683-0.062c-0.074,0.001-0.15,0.003-0.228,0.004V12.706z"/><path d="M9.556,18.908c-0.035,0-0.071-0.002-0.107-0.008C3.886,18.105,0,14.874,0,11.042C0,6.607,5.383,3,12,3s12,3.607,12,8.042c0,2.418-1.575,4.67-4.321,6.179c-0.362,0.2-0.818,0.065-1.019-0.296c-0.199-0.363-0.067-0.819,0.296-1.019c2.252-1.237,3.544-3.011,3.544-4.864C22.5,7.435,17.79,4.5,12,4.5S1.5,7.435,1.5,11.042c0,3.018,3.432,5.698,8.161,6.374c0.409,0.059,0.694,0.438,0.636,0.849C10.244,18.639,9.923,18.908,9.556,18.908z"/><path d="M13.486 19.016c-.387 0-.716-.298-.747-.69-.032-.413.275-.774.688-.808.825-.065 1.613-.195 2.345-.386.398-.101.811.135.915.536s-.136.811-.536.915c-.816.213-1.692.357-2.604.431C13.526 19.015 13.507 19.016 13.486 19.016zM18.036 16.438c-.414 0-.755-.336-.755-.75 0-.35.236-.644.559-.727 2.272-.83 3.682-2.328 3.682-3.92 0-2.492-3.465-4.598-7.565-4.598S6.392 8.55 6.392 11.042c0 1.535 1.287 2.969 3.442 3.834.385.154.571.592.417.976-.155.386-.592.568-.976.417-2.745-1.103-4.384-3.057-4.384-5.227 0-3.419 3.981-6.098 9.064-6.098s9.065 2.679 9.065 6.098c0 2.257-1.813 4.308-4.732 5.353C18.208 16.424 18.122 16.438 18.036 16.438z"/></svg>